<svg width="86" height="19" viewBox="0 0 86 19" fill="none" xmlns="http://www.w3.org/2000/svg">
<path d="M0.75 18V4.325L0.5 1.825L0.75 0.3H6.25V7.075H11.475V0.3H16.975V9.7L17.225 11.425V18H11.475V11.65H6.25V13.4L6.5 18H0.75ZM23.2266 18.25C22.1099 18.25 21.2016 17.9917 20.5016 17.475C19.8182 16.9417 19.4766 16.0167 19.4766 14.7C19.4766 13.4833 19.8766 12.5667 20.6766 11.95C21.4932 11.3167 22.5932 11 23.9766 11C24.7266 11 25.3266 11.075 25.7766 11.225C26.2266 11.3583 26.5682 11.4917 26.8016 11.625L26.9766 11.5C26.9766 10.9833 26.8849 10.6 26.7016 10.35C26.5182 10.0833 26.0766 9.95 25.3766 9.95C24.7599 9.95 24.1266 10.0167 23.4766 10.15C22.8432 10.2667 22.2432 10.425 21.6766 10.625C21.1099 10.8083 20.6266 11.0083 20.2266 11.225V6.725C20.4932 6.64167 20.9182 6.54167 21.5016 6.425C22.0849 6.30833 22.7849 6.20833 23.6016 6.125C24.4182 6.025 25.2932 5.975 26.2266 5.975C27.7932 5.975 29.0349 6.16667 29.9516 6.55C30.8682 6.91667 31.5182 7.45833 31.9016 8.175C32.3016 8.875 32.5016 9.71667 32.5016 10.7V14.025L33.0016 16.55L32.5016 18.025H27.2266V16.8L26.9766 16.675C26.7099 17.0583 26.2516 17.4167 25.6016 17.75C24.9682 18.0833 24.1766 18.25 23.2266 18.25ZM26.0516 14.975C26.3016 14.975 26.5099 14.9333 26.6766 14.85C26.8432 14.7667 26.9432 14.7167 26.9766 14.7V14.15C26.9766 13.9 26.9016 13.6833 26.7516 13.5C26.6016 13.3167 26.3766 13.225 26.0766 13.225C25.8099 13.225 25.5599 13.3 25.3266 13.45C25.0932 13.5833 24.9766 13.825 24.9766 14.175C24.9766 14.7083 25.3349 14.975 26.0516 14.975ZM34.9697 18V4.3L34.4447 1.8L34.9697 0.3H40.4697V18H34.9697ZM42.8555 18V4.3L42.3305 1.8L42.8555 0.3H48.3555V18H42.8555ZM50.7412 18V4.3L50.2162 1.8L50.7412 0.3H56.2412V18H50.7412ZM64.402 18.25C62.3686 18.25 60.752 17.7667 59.552 16.8C58.352 15.8333 57.752 14.2667 57.752 12.1C57.752 9.91667 58.352 8.35 59.552 7.4C60.752 6.43333 62.3686 5.95 64.402 5.95C66.502 5.95 68.127 6.43333 69.277 7.4C70.427 8.35 71.002 9.91667 71.002 12.1C71.002 14.2667 70.427 15.8333 69.277 16.8C68.127 17.7667 66.502 18.25 64.402 18.25ZM64.402 14.25C64.7186 14.25 64.977 14.125 65.177 13.875C65.377 13.6083 65.477 13.0167 65.477 12.1C65.477 11.1667 65.377 10.575 65.177 10.325C64.9936 10.075 64.7353 9.95 64.402 9.95C64.0853 9.95 63.8186 10.075 63.602 10.325C63.3853 10.575 63.277 11.1667 63.277 12.1C63.277 13.0167 63.3853 13.6083 63.602 13.875C63.8186 14.125 64.0853 14.25 64.402 14.25ZM78.6598 18.25C76.6264 18.25 75.0098 17.7667 73.8098 16.8C72.6098 15.8333 72.0098 14.2667 72.0098 12.1C72.0098 9.91667 72.6098 8.35 73.8098 7.4C75.0098 6.43333 76.6264 5.95 78.6598 5.95C80.7598 5.95 82.3848 6.43333 83.5348 7.4C84.6848 8.35 85.2598 9.91667 85.2598 12.1C85.2598 14.2667 84.6848 15.8333 83.5348 16.8C82.3848 17.7667 80.7598 18.25 78.6598 18.25ZM78.6598 14.25C78.9764 14.25 79.2348 14.125 79.4348 13.875C79.6348 13.6083 79.7348 13.0167 79.7348 12.1C79.7348 11.1667 79.6348 10.575 79.4348 10.325C79.2514 10.075 78.9931 9.95 78.6598 9.95C78.3431 9.95 78.0764 10.075 77.8598 10.325C77.6431 10.575 77.5348 11.1667 77.5348 12.1C77.5348 13.0167 77.6431 13.6083 77.8598 13.875C78.0764 14.125 78.3431 14.25 78.6598 14.25Z" fill="white"/>
</svg>
