<svg width="67" height="40" viewBox="0 0 67 40" fill="none" xmlns="http://www.w3.org/2000/svg">
<path d="M0.992432 15.3893C0.992432 14.2226 1.26232 13.1778 1.8021 12.255C2.3593 11.3321 3.13414 10.6096 4.12664 10.0872C5.11914 9.54741 6.25964 9.27752 7.54814 9.27752C8.85407 9.27752 9.98587 9.54741 10.9435 10.0872C11.9013 10.6096 12.6325 11.3321 13.1375 12.255C13.6598 13.1778 13.921 14.2226 13.921 15.3893C13.921 16.5558 13.6598 17.6093 13.1375 18.5496C12.6325 19.4724 11.9013 20.2037 10.9435 20.7435C9.98587 21.2833 8.83666 21.5531 7.49591 21.5531C6.24223 21.5531 5.11914 21.3094 4.12664 20.8218C3.15156 20.3343 2.38541 19.6291 1.82822 18.7063C1.27103 17.7834 0.992432 16.6777 0.992432 15.3893ZM4.67512 15.4154C4.67512 16.3208 4.93631 17.0783 5.45868 17.6876C5.98104 18.2797 6.64271 18.5757 7.44368 18.5757C8.29688 18.5757 8.97596 18.2797 9.48091 17.6876C9.98587 17.0783 10.2383 16.3208 10.2383 15.4154C10.2383 14.5099 9.98587 13.7611 9.48091 13.1691C8.97596 12.5597 8.29688 12.255 7.44368 12.255C6.64271 12.255 5.98104 12.5597 5.45868 13.1691C4.93631 13.7611 4.67512 14.5099 4.67512 15.4154ZM20.0925 9.826L20.3798 12.4378C20.7107 11.7761 21.1634 11.2103 21.7379 10.7401C22.3126 10.2526 22.8785 9.88694 23.4357 9.64317C23.9928 9.38198 24.4195 9.2514 24.7155 9.2514L24.5327 12.9079C23.6795 12.8035 22.9482 12.9428 22.3387 13.3259C21.7293 13.7089 21.2592 14.2139 20.9283 14.8407C20.5975 15.4676 20.432 16.1118 20.432 16.7735V21.2397H16.8016V9.826H20.0925ZM31.6532 21.5531C30.591 21.5531 29.642 21.3094 28.8063 20.8218C27.9705 20.3169 27.3088 19.5943 26.8213 18.654C26.3512 17.7138 26.116 16.5994 26.116 15.3109C26.116 14.0224 26.3773 12.9254 26.8996 12.0199C27.422 11.1145 28.1359 10.4267 29.0414 9.9566C29.9468 9.48646 30.9742 9.2514 32.1233 9.2514C32.8546 9.2514 33.5512 9.36457 34.2128 9.59094C34.8918 9.8173 35.4577 10.1655 35.9105 10.6357V0.632324H39.5409V21.2397H35.8844V20.0383C35.3272 20.4736 34.7004 20.8393 34.0038 21.1353C33.3074 21.4138 32.5238 21.5531 31.6532 21.5531ZM32.8546 18.4711C33.5859 18.4711 34.1954 18.3319 34.6829 18.0533C35.1705 17.7573 35.5709 17.322 35.8844 16.7474V13.9527C35.6754 13.3955 35.301 12.9515 34.7613 12.6207C34.2215 12.2898 33.5859 12.1245 32.8546 12.1245C32.3148 12.1245 31.8099 12.2637 31.3397 12.5424C30.887 12.8035 30.5214 13.1691 30.2428 13.6393C29.9642 14.1094 29.8249 14.6493 29.8249 15.2586C29.8249 15.868 29.9642 16.4166 30.2428 16.9041C30.5214 17.3916 30.887 17.7747 31.3397 18.0533C31.8099 18.3319 32.3148 18.4711 32.8546 18.4711ZM48.918 21.5531C47.525 21.5531 46.341 21.292 45.3659 20.7696C44.4083 20.2473 43.6769 19.5246 43.1721 18.6018C42.667 17.6789 42.4146 16.6168 42.4146 15.4154C42.4146 14.2661 42.7106 13.2301 43.3026 12.3073C43.8946 11.3844 44.6868 10.6531 45.6794 10.1133C46.6718 9.55611 47.7776 9.27752 48.9964 9.27752C50.6332 9.27752 51.9739 9.75635 53.0186 10.714C54.0808 11.6543 54.7686 13.0211 55.0821 14.8146L46.7242 17.4787C47.2813 18.1229 48.0387 18.445 48.9964 18.445C49.3969 18.445 49.7799 18.3755 50.1456 18.2361C50.5287 18.0968 50.903 17.914 51.2687 17.6876L52.8881 20.4039C52.2786 20.7523 51.6169 21.0308 50.9031 21.2397C50.2066 21.4487 49.5449 21.5531 48.918 21.5531ZM46.0189 15.2064C46.0189 15.2935 46.0189 15.3718 46.0189 15.4415L51.0336 13.7438C50.8769 13.3085 50.6245 12.9341 50.2763 12.6207C49.9279 12.2898 49.4056 12.1245 48.7092 12.1245C47.8907 12.1245 47.2378 12.403 46.7503 12.9603C46.2627 13.5174 46.0189 14.2661 46.0189 15.2064ZM61.0301 9.826L61.3174 12.4378C61.6482 11.7761 62.1009 11.2103 62.6755 10.7401C63.2502 10.2526 63.8161 9.88694 64.3732 9.64317C64.9304 9.38198 65.3571 9.2514 65.6531 9.2514L65.4702 12.9079C64.6169 12.8035 63.8857 12.9428 63.2763 13.3259C62.6668 13.7089 62.1967 14.2139 61.8658 14.8407C61.535 15.4676 61.3696 16.1118 61.3696 16.7735V21.2397H57.7392V9.826H61.0301Z" fill="white"/>
<path d="M7.81075 37.9752C6.87048 37.9752 5.99114 37.8099 5.17275 37.479C4.37179 37.1482 3.6927 36.6867 3.1355 36.0947L4.65039 34.0835C5.20759 34.5885 5.72125 34.9542 6.19139 35.1805C6.67894 35.3895 7.11425 35.494 7.49733 35.494C7.95005 35.494 8.32442 35.4243 8.62043 35.285C8.91644 35.1457 9.06445 34.9193 9.06445 34.606C9.06445 34.3099 8.94256 34.0749 8.69879 33.9007C8.47243 33.7266 8.17641 33.5873 7.81075 33.4829C7.44509 33.361 7.05331 33.2391 6.63541 33.1172C5.59065 32.7863 4.83321 32.3075 4.36308 31.6806C3.91035 31.0364 3.68399 30.3399 3.68399 29.5911C3.68399 29.0165 3.832 28.4419 4.12801 27.8673C4.44143 27.2753 4.92899 26.7877 5.59065 26.4046C6.26974 26.0042 7.14036 25.8039 8.20253 25.8039C9.16022 25.8039 9.9699 25.8996 10.6316 26.0912C11.2933 26.2827 11.9201 26.5962 12.5122 27.0315L11.1278 29.1732C10.797 28.9121 10.4226 28.6944 10.0047 28.5203C9.60424 28.3287 9.22988 28.2242 8.88162 28.2069C8.41149 28.1894 8.04582 28.2765 7.78463 28.468C7.52344 28.6422 7.39285 28.8511 7.39285 29.0949C7.37544 29.4257 7.49733 29.6869 7.75851 29.8784C8.03711 30.07 8.38537 30.218 8.80327 30.3224C9.22117 30.427 9.63035 30.5489 10.0308 30.6881C10.8492 30.9667 11.5022 31.3672 11.9897 31.8895C12.4773 32.3945 12.7211 33.0736 12.7211 33.9269C12.7211 34.6233 12.5383 35.285 12.1726 35.9119C11.8243 36.5213 11.2845 37.0175 10.5532 37.4006C9.83931 37.7837 8.92515 37.9752 7.81075 37.9752ZM16.8547 21.3115H20.5114V26.2741H23.28V29.121H20.5114V37.7402H16.8547V29.121H15.0787V26.2741H16.8547V21.3115ZM30.869 38.0536C29.8067 38.0536 28.8404 37.8446 27.9697 37.4267C27.1165 36.9914 26.4374 36.3297 25.9325 35.4417C25.4275 34.5536 25.1751 33.4219 25.1751 32.0463C25.1751 30.7577 25.4362 29.6434 25.9586 28.7031C26.481 27.7629 27.1687 27.0402 28.022 26.5352C28.8752 26.0129 29.7806 25.7516 30.7383 25.7516C31.8702 25.7516 32.7234 25.9345 33.298 26.3002C33.89 26.6659 34.3602 27.0663 34.7084 27.5016L34.9434 26.3263H38.3388V37.7402H34.6823V36.3297C34.5082 36.5039 34.247 36.7303 33.8987 37.0089C33.5678 37.2874 33.15 37.5312 32.645 37.7402C32.1401 37.9491 31.548 38.0536 30.869 38.0536ZM31.9136 35.0761C33.1847 35.0761 34.1076 34.5014 34.6823 33.3522V30.5575C34.4733 30.0003 34.1076 29.5563 33.5853 29.2254C33.0803 28.8946 32.4796 28.7292 31.7831 28.7292C30.9995 28.7292 30.3204 29.0252 29.7458 29.6172C29.1712 30.1919 28.8838 30.9406 28.8838 31.8634C28.8838 32.4729 29.0232 33.0214 29.3018 33.509C29.5804 33.9965 29.9461 34.3795 30.3987 34.6582C30.869 34.9367 31.3738 35.0761 31.9136 35.0761ZM45.3977 26.3263L45.685 28.9382C46.0158 28.2765 46.4685 27.7105 47.0432 27.2404C47.6177 26.7529 48.1837 26.3872 48.7408 26.1434C49.2981 25.8823 49.7247 25.7516 50.0207 25.7516L49.8378 29.4083C48.9846 29.3039 48.2533 29.4431 47.6438 29.8262C47.0345 30.2093 46.5643 30.7142 46.2335 31.3411C45.9026 31.968 45.7372 32.6122 45.7372 33.2739V37.7402H42.1067V26.3263H45.3977Z" fill="white"/>
<path d="M7.81075 37.9752C6.87048 37.9752 5.99114 37.8099 5.17275 37.479C4.37179 37.1482 3.6927 36.6867 3.1355 36.0947L4.65039 34.0835C5.20759 34.5885 5.72125 34.9542 6.19139 35.1805C6.67894 35.3895 7.11425 35.494 7.49733 35.494C7.95005 35.494 8.32442 35.4243 8.62043 35.285C8.91644 35.1457 9.06445 34.9193 9.06445 34.606C9.06445 34.3099 8.94256 34.0749 8.69879 33.9007C8.47243 33.7266 8.17641 33.5873 7.81075 33.4829C7.44509 33.361 7.05331 33.2391 6.63541 33.1172C5.59065 32.7863 4.83321 32.3075 4.36308 31.6806C3.91035 31.0364 3.68399 30.3399 3.68399 29.5911C3.68399 29.0165 3.832 28.4419 4.12801 27.8673C4.44143 27.2753 4.92899 26.7877 5.59065 26.4046C6.26974 26.0042 7.14036 25.8039 8.20253 25.8039C9.16022 25.8039 9.9699 25.8996 10.6316 26.0912C11.2933 26.2827 11.9201 26.5962 12.5122 27.0315L11.1278 29.1732C10.797 28.9121 10.4226 28.6944 10.0047 28.5203C9.60424 28.3287 9.22988 28.2242 8.88162 28.2069C8.41149 28.1894 8.04582 28.2765 7.78463 28.468C7.52344 28.6422 7.39285 28.8511 7.39285 29.0949C7.37544 29.4257 7.49733 29.6869 7.75851 29.8784C8.03711 30.07 8.38537 30.218 8.80327 30.3224C9.22117 30.427 9.63035 30.5489 10.0308 30.6881C10.8492 30.9667 11.5022 31.3672 11.9897 31.8895C12.4773 32.3945 12.7211 33.0736 12.7211 33.9269C12.7211 34.6233 12.5383 35.285 12.1726 35.9119C11.8243 36.5213 11.2845 37.0175 10.5532 37.4006C9.83931 37.7837 8.92515 37.9752 7.81075 37.9752ZM16.8547 21.3115H20.5114V26.2741H23.28V29.121H20.5114V37.7402H16.8547V29.121H15.0787V26.2741H16.8547V21.3115ZM30.869 38.0536C29.8067 38.0536 28.8404 37.8446 27.9697 37.4267C27.1165 36.9914 26.4374 36.3297 25.9325 35.4417C25.4275 34.5536 25.1751 33.4219 25.1751 32.0463C25.1751 30.7577 25.4362 29.6434 25.9586 28.7031C26.481 27.7629 27.1687 27.0402 28.022 26.5352C28.8752 26.0129 29.7806 25.7516 30.7383 25.7516C31.8702 25.7516 32.7234 25.9345 33.298 26.3002C33.89 26.6659 34.3602 27.0663 34.7084 27.5016L34.9434 26.3263H38.3388V37.7402H34.6823V36.3297C34.5082 36.5039 34.247 36.7303 33.8987 37.0089C33.5678 37.2874 33.15 37.5312 32.645 37.7402C32.1401 37.9491 31.548 38.0536 30.869 38.0536ZM31.9136 35.0761C33.1847 35.0761 34.1076 34.5014 34.6823 33.3522V30.5575C34.4733 30.0003 34.1076 29.5563 33.5853 29.2254C33.0803 28.8946 32.4796 28.7292 31.7831 28.7292C30.9995 28.7292 30.3204 29.0252 29.7458 29.6172C29.1712 30.1919 28.8838 30.9406 28.8838 31.8634C28.8838 32.4729 29.0232 33.0214 29.3018 33.509C29.5804 33.9965 29.9461 34.3795 30.3987 34.6582C30.869 34.9367 31.3738 35.0761 31.9136 35.0761ZM45.3977 26.3263L45.685 28.9382C46.0158 28.2765 46.4685 27.7105 47.0432 27.2404C47.6177 26.7529 48.1837 26.3872 48.7408 26.1434C49.2981 25.8823 49.7247 25.7516 50.0207 25.7516L49.8378 29.4083C48.9846 29.3039 48.2533 29.4431 47.6438 29.8262C47.0345 30.2093 46.5643 30.7142 46.2335 31.3411C45.9026 31.968 45.7372 32.6122 45.7372 33.2739V37.7402H42.1067V26.3263H45.3977Z" fill="url(#paint0_linear_1631_210)"/>
<defs>
<linearGradient id="paint0_linear_1631_210" x1="2.22134" y1="17.7402" x2="5.48649" y2="48.7247" gradientUnits="userSpaceOnUse">
<stop stop-color="#FFB733"/>
<stop offset="0.502286" stop-color="#FF9E45"/>
<stop offset="0.970719" stop-color="#FFE600"/>
</linearGradient>
</defs>
</svg>
