<svg width="25" height="25" viewBox="0 0 25 25" fill="none" xmlns="http://www.w3.org/2000/svg">
<path d="M21.0919 21.2565C21.0469 18.3759 20.1495 15.7567 18.5539 13.8603C16.9677 11.9755 14.8178 10.9375 12.4999 10.9375C10.1819 10.9375 8.0321 11.9755 6.44583 13.8603C4.85178 15.7547 3.95496 18.3703 3.90808 21.2473C4.80945 21.6988 8.53943 23.4375 12.4999 23.4375C16.7825 23.4375 20.256 21.709 21.0919 21.2565Z" fill="white"/>
<path d="M12.5 10.1562C14.8731 10.1562 16.7969 8.23247 16.7969 5.85938C16.7969 3.48628 14.8731 1.5625 12.5 1.5625C10.1269 1.5625 8.20312 3.48628 8.20312 5.85938C8.20312 8.23247 10.1269 10.1562 12.5 10.1562Z" fill="white"/>
</svg>
